PathFileType	4	(X/Y/Z)	2_1_41_p0_0-294_filt_butterworth.trc
DataRate	CameraRate	NumFrames	NumMarkers	Units	OrigDataRate	OrigDataStartFrame	OrigNumFrames
60.0	60.0	5	27	m	60.0	220	294
Frame#	Time	RHip			RKnee			RAnkle			RBigToe			RSmallToe			RHeel			LHip			LKnee			LAnkle			LBigToe			LSmallToe			LHeel			Neck			Head			Nose			RShoulder			RElbow			RWrist			RThumb			RIndex			RPinky			LShoulder			LElbow			LWrist			LThumb			LIndex			LPinky			
		X1	Y1	Z1	X2	Y2	Z2	X3	Y3	Z3	X4	Y4	Z4	X5	Y5	Z5	X6	Y6	Z6	X7	Y7	Z7	X8	Y8	Z8	X9	Y9	Z9	X10	Y10	Z10	X11	Y11	Z11	X12	Y12	Z12	X13	Y13	Z13	X14	Y14	Z14	X15	Y15	Z15	X16	Y16	Z16	X17	Y17	Z17	X18	Y18	Z18	X19	Y19	Z19	X20	Y20	Z20	X21	Y21	Z21	X22	Y22	Z22	X23	Y23	Z23	X24	Y24	Z24	X25	Y25	Z25	X26	Y26	Z26	X27	Y27	Z27	
220	3.6666666666666665	0.39282810604564394	0.5729986766561689	0.9767943856441634	0.3499890902644305	0.6762600865450009	1.4096110992252098	0.30024930605186234	0.8972519109047945	1.811355833788202	0.30251847318732616	0.6747706756076362	1.883695423930538	0.35380503224956095	0.7512960520341837	1.8931105689529222	0.280961498057791	0.9388172094777881	1.850682990740042	0.20930352086572512	0.6082015795417203	0.9882015457961931	0.15591482930431705	0.7551685318082455	1.3936230187828789	0.10292829066389214	0.8507442257814035	1.8098189578406143	0.11191830229075198	0.7098535828894779	1.898733176717516	0.0628316041424281	0.6860849719841432	1.8609668779176458	0.1010550042956776	0.9480593079527879	1.8798124537129954	0.20610194296807474	0.4372286762106787	0.43225864164997396	0.105582092211561	0.3521437308526395	0.2152655103000683	0.1384887139362288	0.32966311661377656	0.3697559868619658	0.33349349816118745	0.4308864492289312	0.4277153272674826	0.4358576217226875	0.37895471084361587	0.674450732122916	0.22831455091512198	0.3439561474760904	0.556388121856398	0.13488904526694215	0.35900163716402494	0.5055505213592513	0.11599628702504408	0.35632319017100644	0.5250229388927928	0.13309123168781925	0.3092476884790047	0.5431165597391585	0.10691226843956156	0.5790207091926551	0.48249724018895435	0.10126918961139023	0.5691237942246565	0.738748153756099	0.08366411882493349	0.4449302722542805	0.6176253033571235	0.09500435192607973	0.4243647403191403	0.5417537624695679	0.09064839022089609	0.39301794910698085	0.5373333396129599	0.09265090497367023	0.36968771410032897	0.5717868449842125
221	3.683333333333333	0.39108183961706644	0.5736600346290648	0.9758555257317986	0.3501193904128057	0.6759901456941166	1.409024514630175	0.29998517888611964	0.897236098218547	1.8108033419720377	0.3025156423583023	0.6748755762055553	1.8837569147448645	0.3538385258129825	0.7532148536853515	1.8953212302375606	0.2809364904105256	0.9388504587759345	1.85067527062504	0.20946762168937502	0.6073334809429474	0.9876288687979173	0.15610765190380954	0.7547989349099956	1.3926067936177648	0.10321328064203611	0.8513146251737839	1.8077018225942871	0.11191493946340045	0.7098714389834132	1.8986785392049568	0.06140964375527893	0.6894093671161318	1.8611792328012653	0.10168481514345921	0.9527888848528421	1.8805715073025357	0.20792182385972158	0.434008521621515	0.4330163417526629	0.10741348745783617	0.3480780782083929	0.21514353568233713	0.14027116709245033	0.3255174720991727	0.3703713502342004	0.3335174810867528	0.43081141414613633	0.4276020757468903	0.438174334999687	0.3759018166004063	0.6751579090608988	0.2288539033386072	0.3442405925566622	0.5580233918307053	0.13490185934252272	0.3568137056161095	0.5099523344937807	0.11629902471523901	0.35534601748922867	0.526114164337025	0.13413749168540007	0.30998766901647234	0.5431407231165281	0.10618886683928888	0.575526624218374	0.48278488255207314	0.09994387169398164	0.5742548115287308	0.7377398370612188	0.08378166766352572	0.44547015551016167	0.6178902917845992	0.09491004570238423	0.4231196949888959	0.5417361309229471	0.0903618871126564	0.39327168884075797	0.5374142609868954	0.09444544579414366	0.3651577728889084	0.5702611277053202
222	3.7	0.3893954057378216	0.5747518261106423	0.9754551401127218	0.3503256665770085	0.6755629519881116	1.4073984471146033	0.29988585536354806	0.8974551225625352	1.8108054850562283	0.3024997986281855	0.6749224171881865	1.8837985589394504	0.3538002952146697	0.7564272639051726	1.8971626017888943	0.28094229245530294	0.9388745354342394	1.8507113412451872	0.20903457701340003	0.6062460841775403	0.9865321570252441	0.15630958258812908	0.7544089472196673	1.3908669806998972	0.10330002737113748	0.8510817776739601	1.8067144348837783	0.11190345923406304	0.7098151688176526	1.8984783453877547	0.061038467811511385	0.6903285701471745	1.8612815277100103	0.101635295355431	0.9528606021386621	1.880523654847817	0.20994446590931196	0.4336195899888232	0.43310336570342944	0.1087596452454061	0.3449862797925284	0.2149875435129454	0.14154678537981788	0.32258945310283926	0.37083708686247924	0.334082456480356	0.42922376367702453	0.4278278764639768	0.4411432350989222	0.37141911896682234	0.6753638949291021	0.2306980218905843	0.34321599956083104	0.5602920602580106	0.13440028415390495	0.3552128662886257	0.513375964603452	0.11585996680539809	0.3548233061423462	0.5273514558097607	0.13651426246368095	0.31027931870167985	0.5438355413961503	0.10531667517696602	0.570201316491088	0.48266048037665027	0.09941291253824862	0.577949349589712	0.7372798302561387	0.08393885014701423	0.4453844962601596	0.6177924008119173	0.09438995607082519	0.41969302293777566	0.5428472659930386	0.08987302882058741	0.39313320250856537	0.5373136368674208	0.09626548679373384	0.3571638320162591	0.5702294950171737
223	3.716666666666667	0.3890413044344948	0.5750953293344748	0.9753138632630635	0.3504860287929536	0.6751645893435719	1.4047012191317856	0.2998909606011572	0.8976149641010983	1.8109497220049489	0.3024723241007212	0.6749194827814902	1.8838075155670266	0.35364166125344954	0.7602180858745228	1.8982633064559358	0.2809784192975395	0.9389233204835932	1.8508472484945246	0.20719910356184826	0.6067418806400984	0.9856301772763989	0.15646675096191534	0.7541101637357439	1.3882992010145114	0.10323646134035341	0.850505980682567	1.8065762315955114	0.11190996914028421	0.7098109493661185	1.8985345835966565	0.061269938831747014	0.6901913800698118	1.8613387975965463	0.10108162041771572	0.9480873370381488	1.8792456919816412	0.2113865976977487	0.4352112156892235	0.43225915785851543	0.10924386310676173	0.3435630119885496	0.21434691828523644	0.1420537257818935	0.3215388725428721	0.3710033325561201	0.3354153415789119	0.42559883476704796	0.42871270423745944	0.4434590431910002	0.3682779939830411	0.6753408354737065	0.2336639619753229	0.3405061723362251	0.5634580184623085	0.1348595967424398	0.3508271672862544	0.516317377104495	0.11609978903110922	0.35163663292330904	0.5296771733705764	0.139674963374404	0.308497312431582	0.5457193615006312	0.10472172801129012	0.5652933403709514	0.48174040653137645	0.09950241533232063	0.5788931452741212	0.7371492947666161	0.08455681191652883	0.44381910392090734	0.6177763708373458	0.09360396928963034	0.4156054008841075	0.545712990380998	0.0893501870454534	0.3921048638828969	0.5381200979919296	0.09702108676656668	0.3495059639231276	0.572440464589666
224	3.733333333333333	0.38919140646023026	0.57503024490598	0.9752270515147745	0.3504892968365511	0.6749527970727239	1.401631180285396	0.2999193757082354	0.8976849327079227	1.8110377359275975	0.30244637919123374	0.6749153267342705	1.8837978957522308	0.35345413956577815	0.7630496796325175	1.8988070493180649	0.2810282563270388	0.9389956820943153	1.851049969754825	0.20362393547432345	0.6113845335971332	0.9859321492793638	0.15643104671731087	0.7541663917843229	1.386108372767499	0.10299976362622551	0.8487908195201576	1.8066999447753715	0.11197766176149923	0.7101173343889992	1.8996419485064642	0.06181464656223052	0.690483929275395	1.8614019082129167	0.10060004984974838	0.9411153201116818	1.8770601017084216	0.21203416417404686	0.43648776841265025	0.43080691416866723	0.1093012274406846	0.3432421423526161	0.2133798965038154	0.14251979847012958	0.3207363115335419	0.3709633874180705	0.3371558854524428	0.4209217070331895	0.43034382106831987	0.4446874257021907	0.3683399807611262	0.6752756937780463	0.2366647567384388	0.33713249911518406	0.5674241267716525	0.13715449538220714	0.3426957763301621	0.5196664370953368	0.11869827778318129	0.34437407541126963	0.5329425702023253	0.1427872165888021	0.3052908188908972	0.5482413136110452	0.10462432376067674	0.5623811837726121	0.4798029224903371	0.09982866405469949	0.5781427193813775	0.7368990164606181	0.08602250595098572	0.4403283771159585	0.6183761789620125	0.09292566598354127	0.41306818384925303	0.5499031863827898	0.08898398031007569	0.39016738360743775	0.539994465123025	0.09623583506428285	0.34544520349963437	0.5756666732582456
